<svg width="2864" height="800" viewBox="0 0 2864 800" fill="none" xmlns="http://www.w3.org/2000/svg">
<rect x="125" y="175" width="65" height="450" fill="#272727"/>
<rect x="206" y="175" width="498" height="60" fill="#272727"/>
<rect x="206" y="565" width="498" height="60" fill="#272727"/>
<rect x="206" y="252" width="498" height="55" fill="#FF652F"/>
<rect x="206" y="495" width="498" height="55" fill="#FF652F"/>
<rect x="206" y="372" width="498" height="55" fill="#FF652F"/>
<rect x="206" y="307" width="65" height="45" fill="#FF652F"/>
<rect x="639" y="450" width="65" height="45" fill="#FF652F"/>
<path d="M886.48 451.56C872.04 451.56 858.613 449.407 846.2 445.1C834.04 440.793 823.4 434.587 814.28 426.48C805.16 418.12 798.067 407.987 793 396.08C787.933 383.92 785.4 370.24 785.4 355.04C785.4 339.587 788.06 325.907 793.38 314C798.953 301.84 806.427 291.58 815.8 283.22C825.173 274.86 836.067 268.527 848.48 264.22C861.147 259.913 874.447 257.76 888.38 257.76C903.58 257.76 916.627 260.42 927.52 265.74C938.667 271.06 948.04 277.393 955.64 284.74L940.06 304.88C932.46 298.293 924.48 293.1 916.12 289.3C908.013 285.5 899.147 283.6 889.52 283.6C878.88 283.6 869.127 285.373 860.26 288.92C851.393 292.213 843.793 297.027 837.46 303.36C831.38 309.693 826.567 317.293 823.02 326.16C819.473 334.773 817.7 344.4 817.7 355.04C817.7 365.68 819.347 375.307 822.64 383.92C826.187 392.533 831 400.007 837.08 406.34C843.413 412.42 850.887 417.233 859.5 420.78C868.367 424.073 878.12 425.72 888.76 425.72C900.16 425.72 910.547 423.567 919.92 419.26C929.547 414.7 938.16 409.127 945.76 402.54L959.82 422.68C949.433 431.8 938.033 438.893 925.62 443.96C913.207 449.027 900.16 451.56 886.48 451.56ZM1066.45 451.56C1054.29 451.56 1042.64 449.407 1031.49 445.1C1020.6 440.793 1010.97 434.587 1002.61 426.48C994.252 418.12 987.538 407.987 982.472 396.08C977.658 383.92 975.252 370.24 975.252 355.04C975.252 339.587 977.658 325.907 982.472 314C987.538 301.84 994.252 291.58 1002.61 283.22C1010.97 274.86 1020.6 268.527 1031.49 264.22C1042.64 259.913 1054.29 257.76 1066.45 257.76C1078.61 257.76 1090.14 259.913 1101.03 264.22C1112.18 268.527 1121.93 274.86 1130.29 283.22C1138.65 291.58 1145.24 301.84 1150.05 314C1155.12 325.907 1157.65 339.587 1157.65 355.04C1157.65 370.24 1155.12 383.92 1150.05 396.08C1145.24 407.987 1138.65 418.12 1130.29 426.48C1121.93 434.587 1112.18 440.793 1101.03 445.1C1090.14 449.407 1078.61 451.56 1066.45 451.56ZM1066.45 425.72C1075.32 425.72 1083.3 424.073 1090.39 420.78C1097.74 417.233 1103.94 412.42 1109.01 406.34C1114.33 400.007 1118.38 392.533 1121.17 383.92C1123.96 375.307 1125.35 365.68 1125.35 355.04C1125.35 344.4 1123.96 334.773 1121.17 326.16C1118.38 317.293 1114.33 309.693 1109.01 303.36C1103.94 297.027 1097.74 292.213 1090.39 288.92C1083.3 285.373 1075.32 283.6 1066.45 283.6C1057.58 283.6 1049.48 285.373 1042.13 288.92C1035.04 292.213 1028.83 297.027 1023.51 303.36C1018.44 309.693 1014.52 317.293 1011.73 326.16C1008.94 334.773 1007.55 344.4 1007.55 355.04C1007.55 365.68 1008.94 375.307 1011.73 383.92C1014.52 392.533 1018.44 400.007 1023.51 406.34C1028.83 412.42 1035.04 417.233 1042.13 420.78C1049.48 424.073 1057.58 425.72 1066.45 425.72ZM1252.88 451.56C1240.72 451.56 1229.7 449.407 1219.82 445.1C1210.2 440.793 1201.84 434.587 1194.74 426.48C1187.65 418.12 1182.2 407.987 1178.4 396.08C1174.6 384.173 1172.7 370.493 1172.7 355.04C1172.7 340.093 1174.98 326.667 1179.54 314.76C1184.36 302.6 1190.56 292.34 1198.16 283.98C1206.02 275.62 1215.01 269.16 1225.14 264.6C1235.28 260.04 1245.79 257.76 1256.68 257.76C1267.83 257.76 1277.71 259.913 1286.32 264.22C1295.19 268.273 1303.68 274.1 1311.78 281.7H1312.92L1311.4 247.5V176.44H1342.56V447H1316.72L1314.06 422.68H1312.92C1305.32 430.533 1296.2 437.373 1285.56 443.2C1275.18 448.773 1264.28 451.56 1252.88 451.56ZM1259.34 425.34C1277.58 425.34 1294.94 416.093 1311.4 397.6V305.64C1303.04 297.787 1294.81 292.213 1286.7 288.92C1278.85 285.627 1270.87 283.98 1262.76 283.98C1254.66 283.98 1247.06 285.753 1239.96 289.3C1233.12 292.593 1227.04 297.407 1221.72 303.74C1216.66 309.82 1212.6 317.167 1209.56 325.78C1206.52 334.393 1205 344.02 1205 354.66C1205 376.953 1209.69 394.307 1219.06 406.72C1228.69 419.133 1242.12 425.34 1259.34 425.34ZM1472.75 451.56C1458.82 451.56 1445.77 449.407 1433.61 445.1C1421.71 440.793 1411.19 434.46 1402.07 426.1C1393.21 417.74 1386.11 407.607 1380.79 395.7C1375.73 383.54 1373.19 369.733 1373.19 354.28C1373.19 339.333 1375.73 325.907 1380.79 314C1386.11 302.093 1393.08 291.96 1401.69 283.6C1410.56 275.24 1420.57 268.907 1431.71 264.6C1443.11 260.04 1455.02 257.76 1467.43 257.76C1480.61 257.76 1492.39 259.913 1502.77 264.22C1513.41 268.273 1522.28 274.1 1529.37 281.7C1536.72 289.3 1542.29 298.42 1546.09 309.06C1549.89 319.7 1551.79 331.48 1551.79 344.4C1551.79 347.947 1551.67 351.367 1551.41 354.66C1551.16 357.953 1550.78 360.867 1550.27 363.4H1404.73C1406.76 384.427 1414.36 400.26 1427.53 410.9C1440.96 421.287 1457.3 426.48 1476.55 426.48C1487.7 426.48 1497.71 424.96 1506.57 421.92C1515.69 418.627 1524.43 414.32 1532.79 409L1544.19 429.52C1535.07 435.6 1524.56 440.793 1512.65 445.1C1501 449.407 1487.7 451.56 1472.75 451.56ZM1468.19 282.46C1460.59 282.46 1453.25 283.727 1446.15 286.26C1439.31 288.793 1433.11 292.467 1427.53 297.28C1421.96 301.84 1417.27 307.667 1413.47 314.76C1409.67 321.853 1407.01 329.96 1405.49 339.08H1523.29C1522.03 320.08 1516.45 305.893 1506.57 296.52C1496.95 287.147 1484.15 282.46 1468.19 282.46ZM2564.74 447V262.32H2590.58L2593.24 306.02H2594.38C2604.01 291.073 2615.79 279.293 2629.72 270.68C2643.91 262.067 2659.62 257.76 2676.84 257.76C2683.68 257.76 2690.02 258.393 2695.84 259.66C2701.67 260.673 2707.5 262.573 2713.32 265.36L2706.1 292.34C2699.52 290.06 2693.94 288.413 2689.38 287.4C2685.08 286.387 2679.25 285.88 2671.9 285.88C2657.97 285.88 2644.54 289.933 2631.62 298.04C2618.96 305.893 2607.05 319.447 2595.9 338.7V447H2564.74Z" fill="#FF652F"/>
<path d="M1660.71 451.56C1642.47 451.56 1625.62 448.267 1610.17 441.68C1594.97 435.093 1581.67 426.1 1570.27 414.7L1589.27 392.66C1598.64 402.033 1609.53 409.633 1621.95 415.46C1634.36 421.033 1647.79 423.82 1662.23 423.82C1679.45 423.82 1692.75 420.147 1702.13 412.8C1711.75 405.453 1716.57 395.953 1716.57 384.3C1716.57 377.713 1715.43 372.14 1713.15 367.58C1710.87 363.02 1707.7 359.093 1703.65 355.8C1699.59 352.507 1694.78 349.593 1689.21 347.06C1683.89 344.527 1678.06 341.867 1671.73 339.08L1636.01 323.5C1629.67 320.967 1623.34 317.927 1617.01 314.38C1610.67 310.833 1604.85 306.527 1599.53 301.46C1594.46 296.393 1590.28 290.44 1586.99 283.6C1583.69 276.507 1582.05 268.4 1582.05 259.28C1582.05 249.907 1584.07 241.167 1588.13 233.06C1592.18 224.953 1597.75 217.987 1604.85 212.16C1612.19 206.08 1620.81 201.393 1630.69 198.1C1640.82 194.807 1651.84 193.16 1663.75 193.16C1679.45 193.16 1693.89 196.073 1707.07 201.9C1720.24 207.473 1731.39 214.82 1740.51 223.94L1723.79 244.46C1715.68 237.113 1706.69 231.413 1696.81 227.36C1686.93 223.053 1675.53 220.9 1662.61 220.9C1648.17 220.9 1636.51 224.193 1627.65 230.78C1618.78 237.113 1614.35 245.98 1614.35 257.38C1614.35 263.46 1615.61 268.653 1618.15 272.96C1620.93 277.013 1624.35 280.687 1628.41 283.98C1632.71 287.02 1637.53 289.68 1642.85 291.96C1648.17 294.24 1653.49 296.52 1658.81 298.8L1693.77 314C1701.37 317.04 1708.46 320.587 1715.05 324.64C1721.89 328.44 1727.71 333 1732.53 338.32C1737.59 343.387 1741.52 349.467 1744.31 356.56C1747.35 363.4 1748.87 371.38 1748.87 380.5C1748.87 390.38 1746.84 399.627 1742.79 408.24C1738.73 416.853 1732.91 424.453 1725.31 431.04C1717.71 437.373 1708.46 442.44 1697.57 446.24C1686.67 449.787 1674.39 451.56 1660.71 451.56ZM1840.3 447V224.32H1758.22V197.72H1954.3V224.32H1872.22V447H1840.3ZM2027.87 307.54L2016.09 345.54H2090.57L2078.79 307.54C2074.48 293.607 2070.18 279.8 2065.87 266.12C2061.82 252.187 2057.89 238 2054.09 223.56H2052.57C2048.52 238 2044.46 252.187 2040.41 266.12C2036.36 279.8 2032.18 293.607 2027.87 307.54ZM1951.87 447L2035.85 197.72H2071.57L2155.55 447H2122.11L2098.55 371H2008.11L1984.17 447H1951.87ZM2270.54 451.56C2255.09 451.56 2240.77 448.647 2227.6 442.82C2214.43 436.993 2202.9 428.633 2193.02 417.74C2183.39 406.593 2175.79 393.04 2170.22 377.08C2164.65 360.867 2161.86 342.627 2161.86 322.36C2161.86 302.347 2164.65 284.36 2170.22 268.4C2175.79 252.44 2183.52 238.887 2193.4 227.74C2203.28 216.593 2215.06 208.107 2228.74 202.28C2242.42 196.2 2257.37 193.16 2273.58 193.16C2288.53 193.16 2301.7 196.2 2313.1 202.28C2324.75 208.36 2334.25 215.453 2341.6 223.56L2323.74 243.7C2317.15 236.86 2309.81 231.413 2301.7 227.36C2293.59 223.053 2284.22 220.9 2273.58 220.9C2261.67 220.9 2250.78 223.307 2240.9 228.12C2231.27 232.68 2223.04 239.393 2216.2 248.26C2209.36 256.873 2204.04 267.387 2200.24 279.8C2196.44 292.213 2194.54 306.147 2194.54 321.6C2194.54 337.307 2196.44 351.493 2200.24 364.16C2204.04 376.573 2209.36 387.213 2216.2 396.08C2223.04 404.947 2231.27 411.787 2240.9 416.6C2250.78 421.413 2261.67 423.82 2273.58 423.82C2284.98 423.82 2295.11 421.413 2303.98 416.6C2313.1 411.787 2321.71 404.947 2329.82 396.08L2347.68 415.46C2337.8 426.86 2326.65 435.727 2314.24 442.06C2301.83 448.393 2287.26 451.56 2270.54 451.56ZM2371.85 447V197.72H2403.77V322.74H2404.91L2509.79 197.72H2545.89L2466.85 292.34L2555.01 447H2519.29L2446.71 316.28L2403.77 367.58V447H2371.85Z" fill="#272727"/>
<path d="M795.54 590V513.82H767.46V504.72H834.54V513.82H806.46V590H795.54ZM861.529 591.56C853.903 591.56 848.313 589.437 844.759 585.19C841.293 580.857 839.559 574.487 839.559 566.08V526.82H850.349V564.65C850.349 570.63 851.433 575.093 853.599 578.04C855.853 580.9 859.623 582.33 864.909 582.33C868.549 582.33 871.843 581.42 874.789 579.6C877.736 577.693 880.986 574.703 884.539 570.63V526.82H895.199V590H886.489L885.579 578.95H885.059C881.853 582.677 878.343 585.71 874.529 588.05C870.803 590.39 866.469 591.56 861.529 591.56ZM948.318 591.56C943.725 591.56 939.868 590.953 936.748 589.74C933.628 588.44 931.115 586.663 929.208 584.41C927.302 582.07 925.915 579.297 925.048 576.09C924.268 572.883 923.878 569.33 923.878 565.43V535.53H906.068V527.47L924.268 526.82L925.698 506.54H934.538V526.82H965.608V535.53H934.538V565.56C934.538 568.42 934.798 570.933 935.318 573.1C935.838 575.18 936.705 576.957 937.918 578.43C939.132 579.903 940.778 581.03 942.858 581.81C944.938 582.503 947.495 582.85 950.528 582.85C953.562 582.85 956.292 582.59 958.718 582.07C961.145 581.55 963.485 580.857 965.738 579.99L968.078 587.79C965.218 588.83 962.185 589.697 958.978 590.39C955.858 591.17 952.305 591.56 948.318 591.56ZM1003.65 591.56C999.488 591.56 995.501 590.823 991.688 589.35C987.961 587.877 984.668 585.753 981.808 582.98C978.948 580.12 976.651 576.653 974.918 572.58C973.271 568.42 972.448 563.74 972.448 558.54C972.448 553.253 973.271 548.573 974.918 544.5C976.651 540.34 978.948 536.83 981.808 533.97C984.668 531.11 987.961 528.943 991.688 527.47C995.501 525.997 999.488 525.26 1003.65 525.26C1007.81 525.26 1011.75 525.997 1015.48 527.47C1019.29 528.943 1022.63 531.11 1025.49 533.97C1028.35 536.83 1030.6 540.34 1032.25 544.5C1033.98 548.573 1034.85 553.253 1034.85 558.54C1034.85 563.74 1033.98 568.42 1032.25 572.58C1030.6 576.653 1028.35 580.12 1025.49 582.98C1022.63 585.753 1019.29 587.877 1015.48 589.35C1011.75 590.823 1007.81 591.56 1003.65 591.56ZM1003.65 582.72C1006.68 582.72 1009.41 582.157 1011.84 581.03C1014.35 579.817 1016.47 578.17 1018.21 576.09C1020.03 573.923 1021.41 571.367 1022.37 568.42C1023.32 565.473 1023.8 562.18 1023.8 558.54C1023.8 554.9 1023.32 551.607 1022.37 548.66C1021.41 545.627 1020.03 543.027 1018.21 540.86C1016.47 538.693 1014.35 537.047 1011.84 535.92C1009.41 534.707 1006.68 534.1 1003.65 534.1C1000.61 534.1 997.841 534.707 995.328 535.92C992.901 537.047 990.778 538.693 988.958 540.86C987.224 543.027 985.881 545.627 984.928 548.66C983.974 551.607 983.498 554.9 983.498 558.54C983.498 562.18 983.974 565.473 984.928 568.42C985.881 571.367 987.224 573.923 988.958 576.09C990.778 578.17 992.901 579.817 995.328 581.03C997.841 582.157 1000.61 582.72 1003.65 582.72ZM1051.18 590V526.82H1060.02L1060.93 541.77H1061.32C1064.61 536.657 1068.64 532.627 1073.41 529.68C1078.26 526.733 1083.63 525.26 1089.53 525.26C1091.87 525.26 1094.03 525.477 1096.03 525.91C1098.02 526.257 1100.01 526.907 1102.01 527.86L1099.54 537.09C1097.28 536.31 1095.38 535.747 1093.82 535.4C1092.34 535.053 1090.35 534.88 1087.84 534.88C1083.07 534.88 1078.48 536.267 1074.06 539.04C1069.72 541.727 1065.65 546.363 1061.84 552.95V590H1051.18ZM1140.83 590V535.53H1111.45V526.82H1151.49V590H1140.83ZM1144.99 513.56C1142.56 513.56 1140.52 512.823 1138.88 511.35C1137.23 509.79 1136.41 507.753 1136.41 505.24C1136.41 502.727 1137.23 500.733 1138.88 499.26C1140.52 497.7 1142.56 496.92 1144.99 496.92C1147.41 496.92 1149.45 497.7 1151.1 499.26C1152.74 500.733 1153.57 502.727 1153.57 505.24C1153.57 507.753 1152.74 509.79 1151.1 511.35C1149.45 512.823 1147.41 513.56 1144.99 513.56ZM1199.28 591.56C1196.33 591.56 1193.56 591.127 1190.96 590.26C1188.36 589.48 1186.06 588.353 1184.07 586.88C1182.16 585.32 1180.64 583.457 1179.52 581.29C1178.39 579.037 1177.83 576.48 1177.83 573.62C1177.83 570.067 1178.65 566.99 1180.3 564.39C1182.03 561.703 1184.72 559.407 1188.36 557.5C1192.08 555.593 1196.85 554.033 1202.66 552.82C1208.46 551.607 1215.44 550.653 1223.59 549.96C1223.5 547.793 1223.15 545.757 1222.55 543.85C1221.94 541.943 1220.99 540.297 1219.69 538.91C1218.39 537.437 1216.65 536.267 1214.49 535.4C1212.41 534.533 1209.85 534.1 1206.82 534.1C1202.66 534.1 1198.67 534.923 1194.86 536.57C1191.04 538.13 1187.66 539.82 1184.72 541.64L1180.56 534.36C1182.12 533.32 1183.94 532.28 1186.02 531.24C1188.18 530.113 1190.44 529.117 1192.78 528.25C1195.2 527.383 1197.76 526.69 1200.45 526.17C1203.13 525.563 1205.86 525.26 1208.64 525.26C1217.3 525.26 1223.72 527.643 1227.88 532.41C1232.12 537.09 1234.25 543.373 1234.25 551.26V590H1225.54L1224.63 581.42H1224.24C1220.68 584.193 1216.74 586.577 1212.41 588.57C1208.16 590.563 1203.78 591.56 1199.28 591.56ZM1202.14 582.98C1205.78 582.98 1209.33 582.2 1212.8 580.64C1216.35 578.993 1219.95 576.653 1223.59 573.62V556.98C1216.83 557.5 1211.15 558.237 1206.56 559.19C1202.05 560.143 1198.41 561.313 1195.64 562.7C1192.95 564 1191.04 565.517 1189.92 567.25C1188.79 568.897 1188.23 570.76 1188.23 572.84C1188.23 574.66 1188.62 576.22 1189.4 577.52C1190.18 578.733 1191.17 579.773 1192.39 580.64C1193.69 581.42 1195.16 582.027 1196.81 582.46C1198.54 582.807 1200.32 582.98 1202.14 582.98ZM1287.75 591.56C1280.99 591.56 1275.84 589.653 1272.28 585.84C1268.73 582.027 1266.95 576.35 1266.95 568.81V506.15H1244.46V497.44H1277.61V569.59C1277.61 574.27 1278.74 577.65 1280.99 579.73C1283.25 581.723 1286.28 582.72 1290.09 582.72C1293.82 582.72 1297.76 581.767 1301.92 579.86L1304.65 587.79C1301.71 589.003 1299.02 589.913 1296.59 590.52C1294.17 591.213 1291.22 591.56 1287.75 591.56ZM1342.69 591.56C1336.45 591.56 1330.69 590.607 1325.4 588.7C1320.12 586.707 1315.52 584.367 1311.62 581.68L1316.56 574.66C1320.2 577.26 1324.19 579.34 1328.52 580.9C1332.94 582.46 1338.1 583.24 1343.99 583.24C1349.37 583.24 1353.35 582.287 1355.95 580.38C1358.64 578.387 1359.98 576.047 1359.98 573.36C1359.98 572.147 1359.77 571.02 1359.33 569.98C1358.9 568.94 1357.95 567.943 1356.47 566.99C1355.09 566.037 1353.09 565.127 1350.49 564.26C1347.89 563.393 1344.47 562.527 1340.22 561.66C1331.99 559.927 1325.79 557.63 1321.63 554.77C1317.56 551.823 1315.52 547.967 1315.52 543.2C1315.52 540.687 1316.09 538.347 1317.21 536.18C1318.34 533.927 1319.99 532.02 1322.15 530.46C1324.41 528.813 1327.14 527.557 1330.34 526.69C1333.64 525.737 1337.45 525.26 1341.78 525.26C1346.64 525.26 1351.32 526.083 1355.82 527.73C1360.33 529.29 1364.14 531.153 1367.26 533.32L1362.06 540.21C1359.12 538.217 1355.87 536.613 1352.31 535.4C1348.76 534.187 1344.95 533.58 1340.87 533.58C1335.5 533.58 1331.73 534.49 1329.56 536.31C1327.4 538.13 1326.31 540.253 1326.31 542.68C1326.31 545.453 1327.74 547.577 1330.6 549.05C1333.46 550.437 1338.14 551.823 1344.64 553.21C1349.93 554.337 1354.26 555.55 1357.64 556.85C1361.02 558.063 1363.67 559.45 1365.57 561.01C1367.57 562.57 1368.91 564.303 1369.6 566.21C1370.38 568.117 1370.77 570.283 1370.77 572.71C1370.77 575.31 1370.17 577.737 1368.95 579.99C1367.74 582.243 1365.92 584.237 1363.49 585.97C1361.15 587.703 1358.21 589.047 1354.65 590C1351.19 591.04 1347.2 591.56 1342.69 591.56ZM1468.95 590V535.53H1450.88V527.47L1468.95 526.82V521.49C1468.95 513.777 1470.99 507.58 1475.06 502.9C1479.22 498.22 1485.68 495.88 1494.43 495.88C1500.67 495.88 1506.74 497.093 1512.63 499.52L1510.16 507.58C1507.56 506.367 1505.14 505.587 1502.88 505.24C1500.72 504.807 1498.25 504.59 1495.47 504.59C1489.75 504.59 1485.64 506.063 1483.12 509.01C1480.7 511.87 1479.48 515.9 1479.48 521.1V526.82H1506V535.53H1479.48V590H1468.95ZM1544.04 591.56C1539.88 591.56 1535.89 590.823 1532.08 589.35C1528.35 587.877 1525.06 585.753 1522.2 582.98C1519.34 580.12 1517.04 576.653 1515.31 572.58C1513.66 568.42 1512.84 563.74 1512.84 558.54C1512.84 553.253 1513.66 548.573 1515.31 544.5C1517.04 540.34 1519.34 536.83 1522.2 533.97C1525.06 531.11 1528.35 528.943 1532.08 527.47C1535.89 525.997 1539.88 525.26 1544.04 525.26C1548.2 525.26 1552.14 525.997 1555.87 527.47C1559.68 528.943 1563.02 531.11 1565.88 533.97C1568.74 536.83 1570.99 540.34 1572.64 544.5C1574.37 548.573 1575.24 553.253 1575.24 558.54C1575.24 563.74 1574.37 568.42 1572.64 572.58C1570.99 576.653 1568.74 580.12 1565.88 582.98C1563.02 585.753 1559.68 587.877 1555.87 589.35C1552.14 590.823 1548.2 591.56 1544.04 591.56ZM1544.04 582.72C1547.07 582.72 1549.8 582.157 1552.23 581.03C1554.74 579.817 1556.87 578.17 1558.6 576.09C1560.42 573.923 1561.81 571.367 1562.76 568.42C1563.71 565.473 1564.19 562.18 1564.19 558.54C1564.19 554.9 1563.71 551.607 1562.76 548.66C1561.81 545.627 1560.42 543.027 1558.6 540.86C1556.87 538.693 1554.74 537.047 1552.23 535.92C1549.8 534.707 1547.07 534.1 1544.04 534.1C1541.01 534.1 1538.23 534.707 1535.72 535.92C1533.29 537.047 1531.17 538.693 1529.35 540.86C1527.62 543.027 1526.27 545.627 1525.32 548.66C1524.37 551.607 1523.89 554.9 1523.89 558.54C1523.89 562.18 1524.37 565.473 1525.32 568.42C1526.27 571.367 1527.62 573.923 1529.35 576.09C1531.17 578.17 1533.29 579.817 1535.72 581.03C1538.23 582.157 1541.01 582.72 1544.04 582.72ZM1591.57 590V526.82H1600.41L1601.32 541.77H1601.71C1605 536.657 1609.03 532.627 1613.8 529.68C1618.65 526.733 1624.03 525.26 1629.92 525.26C1632.26 525.26 1634.43 525.477 1636.42 525.91C1638.41 526.257 1640.41 526.907 1642.4 527.86L1639.93 537.09C1637.68 536.31 1635.77 535.747 1634.21 535.4C1632.74 535.053 1630.74 534.88 1628.23 534.88C1623.46 534.88 1618.87 536.267 1614.45 539.04C1610.12 541.727 1606.04 546.363 1602.23 552.95V590H1591.57ZM1739.67 591.56C1736.72 591.56 1733.95 591.127 1731.35 590.26C1728.75 589.48 1726.45 588.353 1724.46 586.88C1722.55 585.32 1721.04 583.457 1719.91 581.29C1718.78 579.037 1718.22 576.48 1718.22 573.62C1718.22 570.067 1719.04 566.99 1720.69 564.39C1722.42 561.703 1725.11 559.407 1728.75 557.5C1732.48 555.593 1737.24 554.033 1743.05 552.82C1748.86 551.607 1755.83 550.653 1763.98 549.96C1763.89 547.793 1763.55 545.757 1762.94 543.85C1762.33 541.943 1761.38 540.297 1760.08 538.91C1758.78 537.437 1757.05 536.267 1754.88 535.4C1752.8 534.533 1750.24 534.1 1747.21 534.1C1743.05 534.1 1739.06 534.923 1735.25 536.57C1731.44 538.13 1728.06 539.82 1725.11 541.64L1720.95 534.36C1722.51 533.32 1724.33 532.28 1726.41 531.24C1728.58 530.113 1730.83 529.117 1733.17 528.25C1735.6 527.383 1738.15 526.69 1740.84 526.17C1743.53 525.563 1746.26 525.26 1749.03 525.26C1757.7 525.26 1764.11 527.643 1768.27 532.41C1772.52 537.09 1774.64 543.373 1774.64 551.26V590H1765.93L1765.02 581.42H1764.63C1761.08 584.193 1757.13 586.577 1752.8 588.57C1748.55 590.563 1744.18 591.56 1739.67 591.56ZM1742.53 582.98C1746.17 582.98 1749.72 582.2 1753.19 580.64C1756.74 578.993 1760.34 576.653 1763.98 573.62V556.98C1757.22 557.5 1751.54 558.237 1746.95 559.19C1742.44 560.143 1738.8 561.313 1736.03 562.7C1733.34 564 1731.44 565.517 1730.31 567.25C1729.18 568.897 1728.62 570.76 1728.62 572.84C1728.62 574.66 1729.01 576.22 1729.79 577.52C1730.57 578.733 1731.57 579.773 1732.78 580.64C1734.08 581.42 1735.55 582.027 1737.2 582.46C1738.93 582.807 1740.71 582.98 1742.53 582.98ZM1828.15 591.56C1821.39 591.56 1816.23 589.653 1812.68 585.84C1809.12 582.027 1807.35 576.35 1807.35 568.81V506.15H1784.86V497.44H1818.01V569.59C1818.01 574.27 1819.13 577.65 1821.39 579.73C1823.64 581.723 1826.67 582.72 1830.49 582.72C1834.21 582.72 1838.16 581.767 1842.32 579.86L1845.05 587.79C1842.1 589.003 1839.41 589.913 1836.99 590.52C1834.56 591.213 1831.61 591.56 1828.15 591.56ZM1895.7 591.56C1888.94 591.56 1883.78 589.653 1880.23 585.84C1876.67 582.027 1874.9 576.35 1874.9 568.81V506.15H1852.41V497.44H1885.56V569.59C1885.56 574.27 1886.68 577.65 1888.94 579.73C1891.19 581.723 1894.22 582.72 1898.04 582.72C1901.76 582.72 1905.71 581.767 1909.87 579.86L1912.6 587.79C1909.65 589.003 1906.96 589.913 1904.54 590.52C1902.11 591.213 1899.16 591.56 1895.7 591.56ZM2029.11 591.56C2024.51 591.56 2020.66 590.953 2017.54 589.74C2014.42 588.44 2011.9 586.663 2010 584.41C2008.09 582.07 2006.7 579.297 2005.84 576.09C2005.06 572.883 2004.67 569.33 2004.67 565.43V535.53H1986.86V527.47L2005.06 526.82L2006.49 506.54H2015.33V526.82H2046.4V535.53H2015.33V565.56C2015.33 568.42 2015.59 570.933 2016.11 573.1C2016.63 575.18 2017.49 576.957 2018.71 578.43C2019.92 579.903 2021.57 581.03 2023.65 581.81C2025.73 582.503 2028.28 582.85 2031.32 582.85C2034.35 582.85 2037.08 582.59 2039.51 582.07C2041.93 581.55 2044.27 580.857 2046.53 579.99L2048.87 587.79C2046.01 588.83 2042.97 589.697 2039.77 590.39C2036.65 591.17 2033.09 591.56 2029.11 591.56ZM2057.53 590V497.44H2068.19V522.66L2067.54 537.61H2067.93C2071.22 534.057 2074.73 531.11 2078.46 528.77C2082.27 526.43 2086.65 525.26 2091.59 525.26C2099.13 525.26 2104.63 527.427 2108.1 531.76C2111.65 536.007 2113.43 542.333 2113.43 550.74V590H2102.77V552.17C2102.77 546.19 2101.64 541.77 2099.39 538.91C2097.13 535.963 2093.41 534.49 2088.21 534.49C2086.3 534.49 2084.52 534.75 2082.88 535.27C2081.32 535.703 2079.76 536.397 2078.2 537.35C2076.64 538.303 2075.03 539.517 2073.39 540.99C2071.74 542.377 2070.01 544.023 2068.19 545.93V590H2057.53ZM2154.06 590V535.53H2124.68V526.82H2164.72V590H2154.06ZM2158.22 513.56C2155.8 513.56 2153.76 512.823 2152.11 511.35C2150.47 509.79 2149.64 507.753 2149.64 505.24C2149.64 502.727 2150.47 500.733 2152.11 499.26C2153.76 497.7 2155.8 496.92 2158.22 496.92C2160.65 496.92 2162.69 497.7 2164.33 499.26C2165.98 500.733 2166.8 502.727 2166.8 505.24C2166.8 507.753 2165.98 509.79 2164.33 511.35C2162.69 512.823 2160.65 513.56 2158.22 513.56ZM2192.62 590V526.82H2201.46L2202.37 537.61H2202.89C2206.19 534.057 2209.74 531.11 2213.55 528.77C2217.37 526.43 2221.74 525.26 2226.68 525.26C2234.22 525.26 2239.73 527.427 2243.19 531.76C2246.75 536.007 2248.52 542.333 2248.52 550.74V590H2237.86V552.17C2237.86 546.19 2236.74 541.77 2234.48 538.91C2232.23 535.963 2228.5 534.49 2223.3 534.49C2221.4 534.49 2219.62 534.75 2217.97 535.27C2216.41 535.703 2214.85 536.397 2213.29 537.35C2211.73 538.303 2210.13 539.517 2208.48 540.99C2206.84 542.377 2205.1 544.023 2203.28 545.93V590H2192.62ZM2286.56 619.12C2277.29 619.12 2270.1 617.603 2264.98 614.57C2259.96 611.537 2257.44 607.203 2257.44 601.57C2257.44 599.057 2258.31 596.587 2260.04 594.16C2261.86 591.733 2264.46 589.523 2267.84 587.53V587.01C2266.11 586.057 2264.59 584.757 2263.29 583.11C2261.99 581.463 2261.34 579.297 2261.34 576.61C2261.34 574.617 2261.99 572.58 2263.29 570.5C2264.59 568.333 2266.46 566.427 2268.88 564.78V564.26C2266.72 562.613 2264.85 560.447 2263.29 557.76C2261.82 554.987 2261.08 551.693 2261.08 547.88C2261.08 544.413 2261.73 541.293 2263.03 538.52C2264.42 535.747 2266.24 533.407 2268.49 531.5C2270.75 529.507 2273.35 527.99 2276.29 526.95C2279.33 525.823 2282.53 525.26 2285.91 525.26C2289.38 525.26 2292.5 525.78 2295.27 526.82H2321.4V535.53H2305.02C2306.5 537.003 2307.75 538.867 2308.79 541.12C2309.83 543.373 2310.35 545.757 2310.35 548.27C2310.35 551.65 2309.7 554.683 2308.4 557.37C2307.19 560.057 2305.46 562.353 2303.2 564.26C2301.04 566.08 2298.44 567.51 2295.4 568.55C2292.46 569.503 2289.29 569.98 2285.91 569.98C2284.27 569.98 2282.49 569.807 2280.58 569.46C2278.76 569.027 2276.99 568.42 2275.25 567.64C2271.96 569.72 2270.31 572.147 2270.31 574.92C2270.31 577.433 2271.44 579.297 2273.69 580.51C2276.03 581.637 2279.28 582.2 2283.44 582.2H2297.61C2305.76 582.2 2311.78 583.327 2315.68 585.58C2319.67 587.833 2321.66 591.647 2321.66 597.02C2321.66 599.967 2320.84 602.783 2319.19 605.47C2317.55 608.157 2315.21 610.497 2312.17 612.49C2309.14 614.483 2305.46 616.087 2301.12 617.3C2296.79 618.513 2291.94 619.12 2286.56 619.12ZM2285.91 562.83C2289.99 562.83 2293.41 561.487 2296.18 558.8C2299.04 556.113 2300.47 552.473 2300.47 547.88C2300.47 545.713 2300.08 543.72 2299.3 541.9C2298.52 540.08 2297.48 538.52 2296.18 537.22C2294.88 535.92 2293.32 534.923 2291.5 534.23C2289.77 533.45 2287.91 533.06 2285.91 533.06C2283.92 533.06 2282.01 533.45 2280.19 534.23C2278.46 534.923 2276.94 535.92 2275.64 537.22C2274.34 538.52 2273.3 540.08 2272.52 541.9C2271.74 543.72 2271.35 545.713 2271.35 547.88C2271.35 552.473 2272.78 556.113 2275.64 558.8C2278.5 561.487 2281.93 562.83 2285.91 562.83ZM2287.34 611.32C2290.98 611.32 2294.28 610.973 2297.22 610.28C2300.17 609.587 2302.68 608.633 2304.76 607.42C2306.84 606.293 2308.4 604.95 2309.44 603.39C2310.57 601.917 2311.13 600.357 2311.13 598.71C2311.13 595.677 2309.92 593.64 2307.49 592.6C2305.15 591.56 2301.56 591.04 2296.7 591.04H2284.35C2282.53 591.04 2280.8 590.953 2279.15 590.78C2277.59 590.693 2276.12 590.433 2274.73 590C2271.7 591.647 2269.58 593.337 2268.36 595.07C2267.24 596.89 2266.67 598.71 2266.67 600.53C2266.67 603.823 2268.41 606.423 2271.87 608.33C2275.43 610.323 2280.58 611.32 2287.34 611.32ZM2355.93 591.56C2349.69 591.56 2343.93 590.607 2338.64 588.7C2333.36 586.707 2328.76 584.367 2324.86 581.68L2329.8 574.66C2333.44 577.26 2337.43 579.34 2341.76 580.9C2346.18 582.46 2351.34 583.24 2357.23 583.24C2362.61 583.24 2366.59 582.287 2369.19 580.38C2371.88 578.387 2373.22 576.047 2373.22 573.36C2373.22 572.147 2373.01 571.02 2372.57 569.98C2372.14 568.94 2371.19 567.943 2369.71 566.99C2368.33 566.037 2366.33 565.127 2363.73 564.26C2361.13 563.393 2357.71 562.527 2353.46 561.66C2345.23 559.927 2339.03 557.63 2334.87 554.77C2330.8 551.823 2328.76 547.967 2328.76 543.2C2328.76 540.687 2329.33 538.347 2330.45 536.18C2331.58 533.927 2333.23 532.02 2335.39 530.46C2337.65 528.813 2340.38 527.557 2343.58 526.69C2346.88 525.737 2350.69 525.26 2355.02 525.26C2359.88 525.26 2364.56 526.083 2369.06 527.73C2373.57 529.29 2377.38 531.153 2380.5 533.32L2375.3 540.21C2372.36 538.217 2369.11 536.613 2365.55 535.4C2362 534.187 2358.19 533.58 2354.11 533.58C2348.74 533.58 2344.97 534.49 2342.8 536.31C2340.64 538.13 2339.55 540.253 2339.55 542.68C2339.55 545.453 2340.98 547.577 2343.84 549.05C2346.7 550.437 2351.38 551.823 2357.88 553.21C2363.17 554.337 2367.5 555.55 2370.88 556.85C2374.26 558.063 2376.91 559.45 2378.81 561.01C2380.81 562.57 2382.15 564.303 2382.84 566.21C2383.62 568.117 2384.01 570.283 2384.01 572.71C2384.01 575.31 2383.41 577.737 2382.19 579.99C2380.98 582.243 2379.16 584.237 2376.73 585.97C2374.39 587.703 2371.45 589.047 2367.89 590C2364.43 591.04 2360.44 591.56 2355.93 591.56ZM2495.71 591.56C2490.77 591.56 2486.18 590.823 2481.93 589.35C2477.77 587.877 2474.13 585.753 2471.01 582.98C2467.89 580.12 2465.46 576.653 2463.73 572.58C2462 568.42 2461.13 563.74 2461.13 558.54C2461.13 553.253 2462.04 548.573 2463.86 544.5C2465.77 540.34 2468.32 536.83 2471.53 533.97C2474.74 531.11 2478.46 528.943 2482.71 527.47C2487.04 525.997 2491.59 525.26 2496.36 525.26C2501.56 525.26 2506.02 526.17 2509.75 527.99C2513.56 529.81 2516.77 531.977 2519.37 534.49L2514.04 541.38C2511.44 539.127 2508.71 537.35 2505.85 536.05C2503.08 534.75 2500.04 534.1 2496.75 534.1C2493.11 534.1 2489.77 534.707 2486.74 535.92C2483.71 537.047 2481.11 538.693 2478.94 540.86C2476.86 543.027 2475.21 545.627 2474 548.66C2472.79 551.607 2472.18 554.9 2472.18 558.54C2472.18 562.18 2472.74 565.473 2473.87 568.42C2475.08 571.367 2476.73 573.923 2478.81 576.09C2480.98 578.17 2483.53 579.817 2486.48 581.03C2489.51 582.157 2492.85 582.72 2496.49 582.72C2500.39 582.72 2503.94 581.983 2507.15 580.51C2510.44 578.95 2513.39 577.043 2515.99 574.79L2520.8 581.68C2517.25 584.8 2513.35 587.227 2509.1 588.96C2504.85 590.693 2500.39 591.56 2495.71 591.56ZM2557.28 591.56C2553.12 591.56 2549.13 590.823 2545.32 589.35C2541.59 587.877 2538.3 585.753 2535.44 582.98C2532.58 580.12 2530.28 576.653 2528.55 572.58C2526.9 568.42 2526.08 563.74 2526.08 558.54C2526.08 553.253 2526.9 548.573 2528.55 544.5C2530.28 540.34 2532.58 536.83 2535.44 533.97C2538.3 531.11 2541.59 528.943 2545.32 527.47C2549.13 525.997 2553.12 525.26 2557.28 525.26C2561.44 525.26 2565.38 525.997 2569.11 527.47C2572.92 528.943 2576.26 531.11 2579.12 533.97C2581.98 536.83 2584.23 540.34 2585.88 544.5C2587.61 548.573 2588.48 553.253 2588.48 558.54C2588.48 563.74 2587.61 568.42 2585.88 572.58C2584.23 576.653 2581.98 580.12 2579.12 582.98C2576.26 585.753 2572.92 587.877 2569.11 589.35C2565.38 590.823 2561.44 591.56 2557.28 591.56ZM2557.28 582.72C2560.31 582.72 2563.04 582.157 2565.47 581.03C2567.98 579.817 2570.11 578.17 2571.84 576.09C2573.66 573.923 2575.05 571.367 2576 568.42C2576.95 565.473 2577.43 562.18 2577.43 558.54C2577.43 554.9 2576.95 551.607 2576 548.66C2575.05 545.627 2573.66 543.027 2571.84 540.86C2570.11 538.693 2567.98 537.047 2565.47 535.92C2563.04 534.707 2560.31 534.1 2557.28 534.1C2554.25 534.1 2551.47 534.707 2548.96 535.92C2546.53 537.047 2544.41 538.693 2542.59 540.86C2540.86 543.027 2539.51 545.627 2538.56 548.66C2537.61 551.607 2537.13 554.9 2537.13 558.54C2537.13 562.18 2537.61 565.473 2538.56 568.42C2539.51 571.367 2540.86 573.923 2542.59 576.09C2544.41 578.17 2546.53 579.817 2548.96 581.03C2551.47 582.157 2554.25 582.72 2557.28 582.72ZM2621.06 591.56C2616.9 591.56 2613.13 590.823 2609.75 589.35C2606.46 587.877 2603.6 585.753 2601.17 582.98C2598.74 580.12 2596.88 576.653 2595.58 572.58C2594.28 568.507 2593.63 563.827 2593.63 558.54C2593.63 553.427 2594.41 548.833 2595.97 544.76C2597.62 540.6 2599.74 537.09 2602.34 534.23C2605.03 531.37 2608.1 529.16 2611.57 527.6C2615.04 526.04 2618.63 525.26 2622.36 525.26C2626.17 525.26 2629.55 525.997 2632.5 527.47C2635.53 528.857 2638.44 530.85 2641.21 533.45H2641.6L2641.08 521.75V497.44H2651.74V590H2642.9L2641.99 581.68H2641.6C2639 584.367 2635.88 586.707 2632.24 588.7C2628.69 590.607 2624.96 591.56 2621.06 591.56ZM2623.27 582.59C2629.51 582.59 2635.45 579.427 2641.08 573.1V541.64C2638.22 538.953 2635.4 537.047 2632.63 535.92C2629.94 534.793 2627.21 534.23 2624.44 534.23C2621.67 534.23 2619.07 534.837 2616.64 536.05C2614.3 537.177 2612.22 538.823 2610.4 540.99C2608.67 543.07 2607.28 545.583 2606.24 548.53C2605.2 551.477 2604.68 554.77 2604.68 558.41C2604.68 566.037 2606.28 571.973 2609.49 576.22C2612.78 580.467 2617.38 582.59 2623.27 582.59ZM2696.28 591.56C2691.51 591.56 2687.05 590.823 2682.89 589.35C2678.81 587.877 2675.22 585.71 2672.1 582.85C2669.06 579.99 2666.64 576.523 2664.82 572.45C2663.08 568.29 2662.22 563.567 2662.22 558.28C2662.22 553.167 2663.08 548.573 2664.82 544.5C2666.64 540.427 2669.02 536.96 2671.97 534.1C2675 531.24 2678.42 529.073 2682.24 527.6C2686.14 526.04 2690.21 525.26 2694.46 525.26C2698.96 525.26 2702.99 525.997 2706.55 527.47C2710.19 528.857 2713.22 530.85 2715.65 533.45C2718.16 536.05 2720.07 539.17 2721.37 542.81C2722.67 546.45 2723.32 550.48 2723.32 554.9C2723.32 556.113 2723.27 557.283 2723.19 558.41C2723.1 559.537 2722.97 560.533 2722.8 561.4H2673.01C2673.7 568.593 2676.3 574.01 2680.81 577.65C2685.4 581.203 2690.99 582.98 2697.58 582.98C2701.39 582.98 2704.81 582.46 2707.85 581.42C2710.97 580.293 2713.96 578.82 2716.82 577L2720.72 584.02C2717.6 586.1 2714 587.877 2709.93 589.35C2705.94 590.823 2701.39 591.56 2696.28 591.56ZM2694.72 533.71C2692.12 533.71 2689.6 534.143 2687.18 535.01C2684.84 535.877 2682.71 537.133 2680.81 538.78C2678.9 540.34 2677.3 542.333 2676 544.76C2674.7 547.187 2673.79 549.96 2673.27 553.08H2713.57C2713.13 546.58 2711.23 541.727 2707.85 538.52C2704.55 535.313 2700.18 533.71 2694.72 533.71Z" fill="#272727"/>
</svg>
